<svg xmlns="http://www.w3.org/2000/svg" width="218" height="42" viewBox="0 0 218 42" fill="none"><path d="M52.8695 23.1901L56.5768 6.73694H60.6901L64.4294 23.1901H61.1281L60.3161 19.0555H56.7905L55.9997 23.1901H52.8695ZM57.2711 16.5876H59.8779L58.5637 9.68567L57.2709 16.5876H57.2711Z" fill="#231F20"></path><path d="M66.0427 23.1901V6.73694H70.9679C71.9721 6.73694 72.7717 6.82237 73.3664 6.99342C73.9609 7.16427 74.4507 7.44206 74.8354 7.82679C75.4123 8.38953 75.82 9.09998 76.0586 9.95834C76.2971 10.8167 76.4165 12.1503 76.4165 13.9594C76.4165 16.2956 76.3346 17.9464 76.1709 18.9115C76.007 19.8768 75.7292 20.6974 75.3375 21.3741C74.96 22.0509 74.4347 22.5225 73.7615 22.7899C73.0886 23.0568 71.9221 23.1906 70.2626 23.1906H66.0425L66.0427 23.1901ZM69.0449 20.7648H70.4019C71.0927 20.7648 71.5771 20.7153 71.8549 20.6155C72.1327 20.5157 72.3533 20.3449 72.5174 20.1027C72.8022 19.6754 73.0052 19.0895 73.1265 18.3452C73.2476 17.601 73.3082 16.4097 73.3082 14.7713C73.3082 13.1758 73.2369 12.0149 73.0945 11.2885C72.9519 10.5621 72.71 10.0137 72.3681 9.64306C72.1901 9.45787 71.9602 9.32778 71.679 9.25301C71.3975 9.17824 70.9579 9.14075 70.3595 9.14075H69.0453V20.7648H69.0449Z" fill="#231F20"></path><path d="M81.4917 23.1901L77.795 6.73694H81.075L83.5216 19.8675L85.7332 6.73694H88.9704L85.5194 23.1901H81.4917Z" fill="#231F20"></path><path d="M89.6649 23.1901L93.3723 6.73694H97.4856L101.225 23.1901H97.9236L97.1115 19.0555H93.5859L92.7952 23.1901H89.6649ZM94.0667 16.5876H96.6735L95.3594 9.68567L94.0667 16.5876Z" fill="#231F20"></path><path d="M102.838 23.1901V6.73694H105.99L110.274 18.2434L110.189 6.73694H113.084V23.1901H109.953L105.637 11.6621L105.723 23.1901H102.838Z" fill="#231F20"></path><path d="M122.422 17.3249H125.403C125.403 17.3961 125.406 17.501 125.413 17.6399C125.42 17.779 125.424 17.8876 125.424 17.9659C125.424 19.8676 125.023 21.2796 124.222 22.2019C123.421 23.1244 122.194 23.5853 120.542 23.5853C119.758 23.5853 119.085 23.4839 118.522 23.2809C117.96 23.0779 117.475 22.7626 117.069 22.3355C116.514 21.7656 116.122 20.9822 115.894 19.9849C115.666 18.9879 115.552 17.2499 115.552 14.7711C115.552 13.0761 115.62 11.7281 115.755 10.7272C115.89 9.72666 116.1 8.98036 116.385 8.4889C116.827 7.734 117.375 7.18723 118.031 6.84901C118.686 6.51079 119.523 6.34137 120.542 6.34137C122.208 6.34137 123.421 6.77608 124.179 7.64489C124.938 8.5139 125.321 9.9098 125.328 11.833H122.358V11.4378C122.358 10.5475 122.213 9.88337 121.925 9.44539C121.637 9.0074 121.197 8.78841 120.606 8.78841C119.872 8.78841 119.372 9.09119 119.104 9.69654C118.837 10.3019 118.704 11.976 118.704 14.7178C118.704 17.6811 118.833 19.483 119.094 20.1238C119.353 20.7648 119.85 21.0854 120.584 21.0854C121.268 21.0854 121.745 20.8345 122.016 20.3322C122.286 19.8301 122.422 18.9025 122.422 17.549V17.3247V17.3249Z" fill="#231F20"></path><path d="M127.87 23.1901V6.73694H136.321V9.472H130.915V13.2754H135.948V15.8822H130.915V20.4123H136.45V23.1901H127.87Z" fill="#231F20"></path><path d="M144.174 23.1901V6.73694H149.1C150.51 6.73694 151.559 7.06451 152.246 7.71985C152.933 8.37519 153.277 9.38289 153.277 10.7436C153.277 11.8332 153.108 12.6772 152.77 13.2756C152.431 13.8738 151.924 14.2337 151.247 14.3546C152.016 14.4613 152.616 14.8444 153.047 15.503C153.478 16.1621 153.694 17.0327 153.694 18.1152C153.694 19.8606 153.329 21.1424 152.599 21.9614C151.868 22.7804 150.731 23.1901 149.185 23.1901H144.174ZM147.155 13.4143H148.181C148.95 13.4143 149.481 13.2471 149.773 12.9122C150.065 12.5775 150.211 11.9612 150.211 11.0638C150.211 10.2589 150.063 9.70862 149.768 9.41301C149.472 9.1176 148.915 8.96969 148.095 8.96969H147.155V13.4143ZM147.155 20.8505H148.416C149.207 20.8505 149.762 20.6565 150.083 20.2683C150.403 19.88 150.563 19.2052 150.563 18.2434C150.563 17.2464 150.389 16.5591 150.04 16.1815C149.691 15.8042 149.036 15.6153 148.074 15.6153H147.155V20.8505Z" fill="#231F20"></path><path d="M156.097 23.1901V6.73694H159.164V23.1901H156.097Z" fill="#231F20"></path><path d="M161.632 14.9636C161.632 13.2187 161.714 11.8244 161.877 10.7808C162.041 9.73729 162.297 8.95206 162.646 8.42496C163.123 7.67702 163.692 7.14296 164.354 6.82236C165.015 6.50196 165.887 6.34155 166.968 6.34155C168.05 6.34155 168.922 6.50196 169.583 6.82236C170.245 7.14296 170.818 7.67702 171.302 8.42496C171.65 8.9664 171.905 9.75695 172.065 10.797C172.225 11.8371 172.305 13.2258 172.305 14.9636C172.305 16.7015 172.223 18.0816 172.059 19.1249C171.896 20.1685 171.643 20.9609 171.302 21.5021C170.818 22.25 170.245 22.7841 169.583 23.1047C168.922 23.4253 168.05 23.5855 166.968 23.5855C165.887 23.5855 165.015 23.4253 164.354 23.1047C163.692 22.7843 163.123 22.25 162.646 21.5021C162.297 20.975 162.041 20.1898 161.877 19.1462C161.713 18.1029 161.632 16.7086 161.632 14.9634V14.9636ZM164.762 14.9636C164.762 17.6702 164.92 19.3744 165.237 20.0759C165.553 20.7775 166.137 21.1284 166.99 21.1284C167.828 21.1284 168.402 20.7849 168.711 20.0974C169.02 19.4101 169.175 17.6989 169.175 14.9638C169.175 12.2288 169.018 10.5123 168.706 9.81411C168.393 9.11616 167.814 8.76728 166.969 8.76728C166.123 8.76728 165.544 9.11636 165.231 9.81411C164.919 10.5123 164.762 12.2288 164.762 14.9638L164.762 14.9636Z" fill="#231F20"></path><path d="M174.805 23.1901V6.73694H183.405V9.42919H177.871V13.3182H183.096V15.9464H177.871V23.1901H174.805Z" fill="#231F20"></path><path d="M185.5 6.73694H188.566V17.8267C188.566 19.0946 188.721 19.9546 189.03 20.4069C189.34 20.8593 189.89 21.0854 190.681 21.0854C191.465 21.0854 192.008 20.8576 192.31 20.4016C192.613 19.946 192.764 19.0733 192.764 17.7839V6.73694H195.788V18.0941C195.788 19.1981 195.726 20.0048 195.601 20.5139C195.476 21.0234 195.268 21.4702 194.976 21.8547C194.534 22.4316 193.95 22.8644 193.224 23.1529C192.498 23.4413 191.635 23.5855 190.638 23.5855C188.758 23.5855 187.431 23.1779 186.659 22.3623C185.886 21.5468 185.499 20.124 185.499 18.0941V6.73694H185.5Z" fill="#231F20"></path><path d="M198.566 23.1901V6.73694H207.017V9.472H201.611V13.2754H206.643V15.8822H201.611V20.4123H207.145V23.1901H198.566Z" fill="#231F20"></path><path d="M209.4 23.1901V6.73694H212.466V20.391H218V23.1901H209.4Z" fill="#231F20"></path><path d="M56.762 29.1091V30.3666H56.3539C56.3123 30.2305 56.2693 30.1111 56.2248 30.0085C56.1804 29.9058 56.1347 29.8198 56.0876 29.7503C56.0403 29.6809 55.9884 29.6256 55.9315 29.5838C55.8745 29.542 55.8073 29.5137 55.7295 29.4986C55.6516 29.4832 55.5588 29.4756 55.4505 29.4756H54.1349V31.6572H55.0258C55.1479 31.6572 55.2436 31.64 55.313 31.6051C55.3822 31.5703 55.4398 31.5115 55.4857 31.4281C55.5316 31.345 55.5752 31.2145 55.6168 31.0368H56.0081V32.6356H55.6168C55.5779 32.469 55.5349 32.3434 55.4877 32.2588C55.4404 32.1742 55.3843 32.114 55.3191 32.0777C55.254 32.0417 55.1561 32.0237 55.0256 32.0237H54.1347V34.4258H55.4294C55.5654 34.4258 55.6756 34.4139 55.7602 34.3904C55.8448 34.367 55.9177 34.3267 55.9788 34.2697C56.0398 34.213 56.0939 34.1386 56.141 34.047C56.1882 33.9555 56.2277 33.8604 56.2597 33.7619C56.2914 33.6633 56.3352 33.5197 56.3908 33.3311H56.8029L56.7239 34.7923H52.8688V34.5883C53.0409 34.544 53.156 34.4947 53.2144 34.4404C53.2726 34.3863 53.3109 34.3093 53.3289 34.2095C53.347 34.1095 53.356 33.9569 53.356 33.7514V30.1502C53.356 29.9589 53.349 29.8194 53.3351 29.7319C53.3212 29.6444 53.2982 29.5764 53.2665 29.5279C53.2345 29.4793 53.1921 29.4404 53.1395 29.4113C53.0866 29.382 52.9965 29.3494 52.8688 29.3134V29.1093H56.7614L56.762 29.1091Z" fill="#231F20"></path><path d="M61.1166 32.5397C61.2166 32.7063 61.3004 32.8519 61.3684 32.9769C61.4364 33.1017 61.5065 33.2418 61.5786 33.3973H61.6327C61.6187 33.2281 61.6062 32.8915 61.5952 32.3877C61.5841 31.884 61.5786 31.4296 61.5786 31.0244V30.1501C61.5786 29.9587 61.573 29.8184 61.562 29.7297C61.5509 29.641 61.5308 29.573 61.5015 29.5256C61.4725 29.4785 61.4321 29.4404 61.3809 29.4113C61.3295 29.382 61.2399 29.3495 61.1123 29.3134V29.1094H62.6111V29.3134C62.4861 29.3468 62.398 29.3773 62.3466 29.405C62.2952 29.4326 62.2536 29.4689 62.2216 29.5132C62.1897 29.5576 62.1653 29.6242 62.1487 29.7129C62.1321 29.8018 62.1237 29.9475 62.1237 30.1501V34.8171H61.6034L59.2846 30.9287C59.1401 30.6874 59.0375 30.5112 58.9765 30.4002C58.9154 30.2892 58.8585 30.1796 58.8058 30.0712H58.7349C58.7544 30.2849 58.7683 30.6714 58.7765 31.2307C58.7849 31.79 58.789 32.3472 58.789 32.9021V33.7515C58.789 33.9375 58.7952 34.0735 58.8079 34.1595C58.8204 34.2456 58.8413 34.3134 58.8703 34.3634C58.8994 34.4134 58.9425 34.455 58.9994 34.4883C59.0562 34.5217 59.1485 34.5549 59.2762 34.5883V34.7924H57.7565V34.5883C57.9286 34.5441 58.0437 34.4947 58.1021 34.4404C58.1603 34.3863 58.1986 34.3093 58.2166 34.2095C58.2347 34.1096 58.2437 33.9569 58.2437 33.7515V30.1503C58.2437 29.9589 58.2367 29.8194 58.223 29.7319C58.2091 29.6445 58.1861 29.5765 58.1544 29.5279C58.1224 29.4793 58.08 29.4404 58.0274 29.4113C57.9745 29.382 57.8844 29.3495 57.7567 29.3134V29.1094H59.0598L61.1164 32.5399L61.1166 32.5397Z" fill="#231F20"></path><path d="M67.4697 29.1091V30.3666H67.0617C67.0201 30.2305 66.977 30.1111 66.9326 30.0085C66.8881 29.9058 66.8424 29.8198 66.7953 29.7503C66.748 29.6809 66.6962 29.6256 66.6392 29.5838C66.5823 29.542 66.5151 29.5137 66.4372 29.4986C66.3594 29.4832 66.2666 29.4756 66.1582 29.4756H64.8426V31.6572H65.7336C65.8556 31.6572 65.9513 31.64 66.0208 31.6051C66.09 31.5703 66.1476 31.5115 66.1935 31.4281C66.2393 31.3447 66.283 31.2145 66.3246 31.0368H66.7158V32.6356H66.3246C66.2856 32.469 66.2426 32.3434 66.1955 32.2588C66.1482 32.1742 66.0921 32.114 66.0269 32.0777C65.9618 32.0417 65.8638 32.0237 65.7333 32.0237H64.8424V34.4258H66.1371C66.2731 34.4258 66.3834 34.4139 66.468 34.3904C66.5526 34.367 66.6255 34.3267 66.6866 34.2697C66.7476 34.213 66.8017 34.1386 66.8488 34.047C66.8959 33.9555 66.9355 33.8604 66.9674 33.7619C66.9992 33.6633 67.043 33.5197 67.0985 33.3311H67.5107L67.4316 34.7923H63.5766V34.5883C63.7487 34.544 63.8638 34.4947 63.9222 34.4404C63.9804 34.3863 64.0187 34.3093 64.0367 34.2095C64.0547 34.1095 64.0638 33.9569 64.0638 33.7514V30.1502C64.0638 29.9589 64.0568 29.8194 64.0429 29.7319C64.0289 29.6444 64.006 29.5764 63.9742 29.5279C63.9423 29.4793 63.8999 29.4404 63.8472 29.4113C63.7944 29.382 63.7042 29.3494 63.5766 29.3134V29.1093H67.4691L67.4697 29.1091Z" fill="#231F20"></path><path d="M69.751 32.3232V33.7385C69.751 33.9385 69.7586 34.0835 69.7739 34.1737C69.7891 34.2638 69.812 34.332 69.8425 34.3777C69.8731 34.4234 69.9147 34.4609 69.9675 34.49C70.0202 34.5193 70.1105 34.5518 70.2381 34.5879V34.7919H68.4813V34.5879C68.6533 34.5436 68.7685 34.4943 68.8269 34.44C68.885 34.3859 68.9233 34.3089 68.9414 34.2091C68.9594 34.1091 68.9684 33.9565 68.9684 33.751V30.1498C68.9684 29.9585 68.9615 29.819 68.9475 29.7315C68.9336 29.644 68.9106 29.576 68.8789 29.5275C68.8469 29.4789 68.8045 29.44 68.7519 29.4109C68.699 29.3816 68.6089 29.349 68.4813 29.313V29.1089H70.5421C71.1915 29.1089 71.6773 29.2269 71.9993 29.4627C72.3213 29.6987 72.4821 30.065 72.4821 30.5618C72.4821 30.942 72.3773 31.2653 72.1679 31.5318C71.9583 31.7981 71.6441 32.0063 71.2249 32.1562V32.1896C71.3941 32.2591 71.5392 32.3582 71.6601 32.4871C71.7807 32.6161 71.9147 32.8167 72.0618 33.0887L72.4365 33.7713C72.5446 33.9713 72.6376 34.1239 72.7155 34.2294C72.7931 34.3349 72.8722 34.4154 72.9527 34.4709C73.0332 34.5264 73.1402 34.5654 73.2733 34.5875V34.7915H72.1202C72.0147 34.6444 71.9147 34.4863 71.8205 34.3169C71.7262 34.1476 71.6332 33.9754 71.5414 33.8006L71.1751 33.1053C71.0641 32.8945 70.9732 32.739 70.9025 32.6391C70.8318 32.5391 70.7665 32.469 70.7068 32.4289C70.6472 32.3887 70.5833 32.3609 70.5153 32.3457C70.4473 32.3306 70.3453 32.3228 70.2092 32.3228H69.7514L69.751 32.3232ZM69.751 29.4922V31.9653H70.2213C70.4629 31.9653 70.6585 31.9479 70.8083 31.9133C70.9582 31.8786 71.0969 31.8127 71.2245 31.7156C71.3521 31.6185 71.4542 31.4831 71.5306 31.3095C71.6068 31.136 71.6451 30.9232 71.6451 30.6706C71.6451 30.4069 71.6 30.1875 71.5099 30.0128C71.4198 29.8378 71.2829 29.7047 71.0998 29.6131C70.9166 29.5215 70.6696 29.4756 70.3588 29.4756C70.1089 29.4756 69.9063 29.4814 69.751 29.4922Z" fill="#231F20"></path><path d="M77.5903 34.771L77.2656 34.8585L76.9616 34.5338C76.7812 34.6448 76.5925 34.7267 76.3954 34.7794C76.1983 34.832 75.9722 34.8585 75.7167 34.8585C75.0145 34.8585 74.4857 34.6178 74.1305 34.1361C73.7753 33.6547 73.5977 32.9394 73.5977 31.99C73.5977 31.3988 73.6948 30.8799 73.8892 30.4331C74.0834 29.9863 74.3624 29.6428 74.7258 29.4027C75.0892 29.1626 75.5168 29.0425 76.008 29.0425C76.2661 29.0425 76.5144 29.0571 76.7533 29.0862C76.992 29.1153 77.257 29.1659 77.5486 29.238V30.3829H77.1364C77.0614 30.133 76.9725 29.9382 76.8699 29.7981C76.7672 29.6579 76.6443 29.558 76.5015 29.4983C76.3585 29.4387 76.1774 29.4088 75.9582 29.4088C75.6557 29.4088 75.3906 29.5061 75.1632 29.7003C74.9356 29.8948 74.7586 30.1811 74.6324 30.5601C74.506 30.9389 74.4429 31.3964 74.4429 31.9319C74.4429 32.4758 74.4964 32.9406 74.6031 33.3265C74.7098 33.7123 74.8688 34.003 75.0798 34.1988C75.2906 34.3945 75.5502 34.4924 75.8583 34.4924C76.1856 34.4924 76.4286 34.4209 76.587 34.2779C76.7453 34.1349 76.8242 33.9151 76.8242 33.6181V33.3681C76.8242 33.1184 76.8109 32.9381 76.7846 32.8271C76.7584 32.7161 76.7117 32.63 76.6451 32.569C76.5786 32.5079 76.4687 32.4581 76.3163 32.419V32.215H77.9982V32.419C77.8982 32.4524 77.8235 32.4905 77.7735 32.5335C77.7235 32.5766 77.6854 32.63 77.659 32.6937C77.6325 32.7576 77.6145 32.8359 77.6049 32.9289C77.5951 33.0219 77.5903 33.1545 77.5903 33.3265V34.7712V34.771Z" fill="#231F20"></path><path d="M80.13 32.4065L78.9809 30.2707C78.8422 30.0128 78.7367 29.828 78.6646 29.7169C78.5923 29.6061 78.5202 29.5186 78.4481 29.4547C78.376 29.3908 78.2926 29.3437 78.1984 29.3132V29.1091H79.9718V29.3132C79.7108 29.3437 79.5805 29.4562 79.5805 29.6504C79.5805 29.7309 79.5994 29.821 79.6369 29.921C79.6744 30.021 79.7416 30.1625 79.8389 30.3457L80.6714 31.9319L81.4917 30.4831C81.6027 30.286 81.681 30.1244 81.7268 29.998C81.7725 29.8718 81.7955 29.7559 81.7955 29.6504C81.7955 29.5504 81.7656 29.4721 81.7059 29.4152C81.6461 29.3582 81.5582 29.3242 81.4417 29.3132V29.1091H83.0195V29.3132C82.9056 29.355 82.8058 29.4125 82.7198 29.4859C82.6338 29.5594 82.5463 29.6588 82.4576 29.7835C82.3687 29.9085 82.2384 30.1195 82.0663 30.4163L80.9088 32.3897V33.7385C80.9088 33.8969 80.9172 34.0245 80.9338 34.1216C80.9504 34.2187 80.9783 34.2964 81.017 34.3547C81.0557 34.4129 81.1071 34.4588 81.1711 34.4922C81.2348 34.5256 81.3347 34.5573 81.4708 34.5879V34.7919H79.5682V34.5879C79.7014 34.5602 79.7999 34.5303 79.8639 34.4983C79.9276 34.4666 79.979 34.4205 80.0179 34.3609C80.0568 34.3013 80.0851 34.2228 80.1033 34.1255C80.1214 34.0284 80.1304 33.8993 80.1304 33.7383V32.4063L80.13 32.4065Z" fill="#231F20"></path><path d="M89.164 29.1092V30.3666H88.756C88.6949 30.1777 88.6359 30.0251 88.579 29.9085C88.522 29.792 88.4624 29.7031 88.3999 29.6422C88.3374 29.5812 88.2647 29.5381 88.1813 29.5132C88.098 29.4882 87.9883 29.4757 87.8525 29.4757H86.6326V31.7404H87.4903C87.6124 31.7404 87.7081 31.7203 87.7776 31.6799C87.847 31.6398 87.9046 31.5726 87.9504 31.4782C87.9963 31.3837 88.04 31.2381 88.0816 31.041H88.4728V32.7976H88.0816C88.04 32.609 87.9955 32.4668 87.9484 32.3709C87.9013 32.2753 87.845 32.2072 87.7798 32.1669C87.7147 32.1267 87.6182 32.1065 87.4905 32.1065H86.6328V33.7384C86.6328 33.9051 86.6424 34.0383 86.6619 34.138C86.6814 34.238 86.7133 34.3171 86.7576 34.3753C86.802 34.4334 86.8616 34.4773 86.9366 34.5064C87.0116 34.5357 87.1046 34.5627 87.2156 34.5877V34.7917H85.3672V34.5877C85.5393 34.5435 85.6544 34.4941 85.7128 34.4398C85.771 34.3857 85.8093 34.3087 85.8273 34.2089C85.8453 34.1089 85.8543 33.9563 85.8543 33.7509V30.1496C85.8543 29.9583 85.8474 29.8188 85.8334 29.7313C85.8195 29.6439 85.7966 29.5758 85.7648 29.5273C85.7329 29.4787 85.6905 29.4398 85.6378 29.4107C85.585 29.3814 85.4948 29.3489 85.3672 29.3128V29.1088H89.164V29.1092Z" fill="#231F20"></path><path d="M92.099 34.8585C91.7659 34.8585 91.4628 34.8036 91.1895 34.694C90.916 34.5844 90.6816 34.4137 90.4858 34.182C90.2901 33.9501 90.139 33.6539 90.032 33.2931C89.9251 32.9324 89.8718 32.5008 89.8718 31.9984C89.8718 31.3796 89.9661 30.8482 90.1549 30.4038C90.3436 29.9599 90.6134 29.6219 90.9647 29.3902C91.3159 29.1585 91.7231 29.0425 92.1867 29.0425C92.6806 29.0425 93.0963 29.1515 93.4335 29.3693C93.7707 29.5873 94.0247 29.9079 94.1954 30.3309C94.366 30.7543 94.4514 31.2698 94.4514 31.8776C94.4514 32.5272 94.3543 33.0752 94.1601 33.522C93.9657 33.969 93.6918 34.3033 93.3378 34.5254C92.9838 34.7474 92.5708 34.8585 92.099 34.8585ZM90.7294 31.8819C90.7294 32.7339 90.8535 33.3821 91.102 33.826C91.3503 34.2701 91.7133 34.4922 92.1906 34.4922C92.4932 34.4922 92.7499 34.3957 92.9609 34.2027C93.1717 34.0099 93.33 33.7274 93.4355 33.3556C93.541 32.9838 93.5937 32.5495 93.5937 32.0527C93.5937 31.4476 93.5318 30.9459 93.4085 30.5476C93.285 30.1494 93.1164 29.8601 92.9027 29.6796C92.6888 29.4994 92.4405 29.409 92.1574 29.409C91.9077 29.409 91.6932 29.4674 91.5142 29.584C91.3351 29.7005 91.1866 29.8665 91.0686 30.0814C90.9506 30.2965 90.8646 30.5566 90.8105 30.8619C90.7564 31.1673 90.7294 31.5072 90.7294 31.8819Z" fill="#231F20"></path><path d="M96.7202 32.3232V33.7385C96.7202 33.9385 96.7278 34.0835 96.7432 34.1737C96.7583 34.2638 96.7813 34.332 96.8118 34.3777C96.8423 34.4234 96.8839 34.4609 96.9367 34.49C96.9894 34.5193 97.0797 34.5518 97.2074 34.5879V34.7919H95.4505V34.5879C95.6226 34.5436 95.7377 34.4943 95.7961 34.44C95.8543 34.3859 95.8926 34.3089 95.9106 34.2091C95.9286 34.1091 95.9377 33.9565 95.9377 33.751V30.1498C95.9377 29.9585 95.9307 29.819 95.9168 29.7315C95.9028 29.644 95.8799 29.576 95.8481 29.5275C95.8162 29.4789 95.7738 29.44 95.7211 29.4109C95.6683 29.3816 95.5781 29.349 95.4505 29.313V29.1089H97.5114C98.1608 29.1089 98.6465 29.2269 98.9685 29.4627C99.2906 29.6987 99.4514 30.065 99.4514 30.5618C99.4514 30.942 99.3465 31.2653 99.1371 31.5318C98.9276 31.7981 98.6133 32.0063 98.1942 32.1562V32.1896C98.3634 32.2591 98.5084 32.3582 98.6293 32.4871C98.7499 32.6161 98.8839 32.8167 99.031 33.0887L99.4057 33.7713C99.5139 33.9713 99.6069 34.1239 99.6847 34.2294C99.7624 34.3349 99.8414 34.4154 99.9219 34.4709C100.002 34.5264 100.109 34.5654 100.243 34.5875V34.7915H99.0894C98.9839 34.6444 98.8839 34.4863 98.7897 34.3169C98.6955 34.1476 98.6025 33.9754 98.5107 33.8006L98.1444 33.1053C98.0333 32.8945 97.9424 32.739 97.8717 32.6391C97.801 32.5391 97.7357 32.469 97.6761 32.4289C97.6165 32.3887 97.5526 32.3609 97.4845 32.3457C97.4165 32.3306 97.3145 32.3228 97.1785 32.3228H96.7206L96.7202 32.3232ZM96.7202 29.4922V31.9653H97.1906C97.4321 31.9653 97.6277 31.9479 97.7775 31.9133C97.9274 31.8786 98.0661 31.8127 98.1938 31.7156C98.3214 31.6185 98.4234 31.4831 98.4998 31.3095C98.576 31.136 98.6143 30.9232 98.6143 30.6706C98.6143 30.4069 98.5693 30.1875 98.4791 30.0128C98.389 29.8378 98.2521 29.7047 98.069 29.6131C97.8859 29.5215 97.6388 29.4756 97.328 29.4756C97.0781 29.4756 96.8755 29.4814 96.7202 29.4922Z" fill="#231F20"></path><path d="M106.42 29.1092V30.3666H106.012C105.951 30.1777 105.892 30.0251 105.835 29.9085C105.778 29.792 105.719 29.7031 105.656 29.6422C105.594 29.5812 105.521 29.5381 105.438 29.5132C105.354 29.4882 105.245 29.4757 105.109 29.4757H103.889V31.7404H104.746C104.869 31.7404 104.964 31.7203 105.034 31.6799C105.103 31.6398 105.161 31.5726 105.206 31.4782C105.252 31.3837 105.296 31.2381 105.337 31.041H105.729V32.7976H105.337C105.296 32.609 105.251 32.4668 105.204 32.3709C105.157 32.2753 105.101 32.2072 105.036 32.1669C104.97 32.1267 104.874 32.1065 104.746 32.1065H103.889V33.7384C103.889 33.9051 103.898 34.0383 103.918 34.138C103.937 34.2378 103.969 34.3171 104.014 34.3753C104.058 34.4334 104.118 34.4773 104.193 34.5064C104.268 34.5357 104.361 34.5627 104.472 34.5877V34.7917H102.623V34.5877C102.795 34.5435 102.91 34.4941 102.969 34.4398C103.027 34.3857 103.065 34.3087 103.083 34.2089C103.101 34.1089 103.11 33.9563 103.11 33.7509V30.1496C103.11 29.9583 103.103 29.8188 103.089 29.7313C103.075 29.6439 103.052 29.5758 103.021 29.5273C102.989 29.4787 102.946 29.4398 102.894 29.4107C102.841 29.3814 102.751 29.3489 102.623 29.3128V29.1088H106.42L106.42 29.1092Z" fill="#231F20"></path><path d="M111.379 32.8269C111.379 33.1293 111.351 33.3903 111.296 33.6095C111.243 33.8176 111.164 34.0022 111.058 34.1632C110.961 34.3077 110.84 34.4304 110.696 34.5318C110.552 34.6332 110.377 34.7129 110.171 34.771C109.966 34.8294 109.724 34.8585 109.447 34.8585C109.111 34.8585 108.823 34.821 108.583 34.7463C108.343 34.6713 108.145 34.5486 107.988 34.3777C107.831 34.2069 107.718 34.0059 107.648 33.774C107.579 33.5423 107.545 33.2473 107.545 32.8894V30.1501C107.545 29.9335 107.538 29.7873 107.524 29.7108C107.51 29.6344 107.49 29.5742 107.463 29.5297C107.437 29.4855 107.399 29.4472 107.349 29.4154C107.299 29.3835 107.206 29.3495 107.07 29.3134V29.1094H108.818V29.3134C108.663 29.3523 108.555 29.3962 108.494 29.4445C108.433 29.4931 108.391 29.566 108.369 29.6631C108.347 29.7604 108.335 29.9227 108.335 30.1503V33.0978C108.335 33.3672 108.364 33.5933 108.421 33.7765C108.477 33.9596 108.557 34.102 108.66 34.2032C108.763 34.3046 108.885 34.3781 109.026 34.4238C109.168 34.4697 109.344 34.4926 109.555 34.4926C109.749 34.4926 109.92 34.4586 110.067 34.3906C110.214 34.3228 110.337 34.2194 110.436 34.0805C110.534 33.9418 110.601 33.7711 110.637 33.5685C110.674 33.3659 110.692 33.0939 110.692 32.7526V30.1505C110.692 29.9091 110.68 29.744 110.656 29.6551C110.633 29.5664 110.594 29.4984 110.54 29.4511C110.486 29.404 110.374 29.3581 110.205 29.3136V29.1096H111.866V29.3136C111.705 29.3554 111.594 29.4011 111.535 29.4511C111.475 29.5011 111.434 29.5734 111.412 29.6676C111.39 29.7621 111.378 29.9231 111.378 30.1505V32.8276L111.379 32.8269Z" fill="#231F20"></path><path d="M112.495 29.1092H116.999V30.5579H116.591C116.53 30.3193 116.47 30.1306 116.41 29.9917C116.35 29.853 116.287 29.7475 116.221 29.6754C116.154 29.6031 116.083 29.5519 116.006 29.5213C115.93 29.4908 115.815 29.4755 115.663 29.4755H115.134V33.7386C115.134 33.9025 115.143 34.0327 115.161 34.1298C115.179 34.227 115.207 34.304 115.244 34.3609C115.282 34.4179 115.332 34.4623 115.396 34.4941C115.46 34.526 115.56 34.5572 115.696 34.5877V34.7917H113.794V34.5877C113.877 34.5682 113.95 34.5476 114.014 34.5252C114.078 34.5031 114.13 34.4761 114.17 34.4439C114.21 34.4121 114.244 34.371 114.27 34.3212C114.297 34.2714 114.317 34.2032 114.333 34.1171C114.348 34.0311 114.356 33.9049 114.356 33.7382V29.4751H113.831C113.701 29.4751 113.593 29.4875 113.508 29.5125C113.424 29.5375 113.345 29.5896 113.273 29.6686C113.201 29.7479 113.135 29.8602 113.075 30.0058C113.016 30.1517 112.96 30.3355 112.907 30.5575H112.495V29.1088L112.495 29.1092Z" fill="#231F20"></path><path d="M121.957 32.8269C121.957 33.1293 121.929 33.3903 121.874 33.6095C121.822 33.8176 121.742 34.0022 121.637 34.1632C121.54 34.3077 121.419 34.4304 121.275 34.5318C121.13 34.6332 120.956 34.7129 120.75 34.771C120.545 34.8294 120.303 34.8585 120.026 34.8585C119.69 34.8585 119.402 34.821 119.162 34.7463C118.922 34.6713 118.723 34.5486 118.567 34.3777C118.41 34.2071 118.297 34.0059 118.227 33.774C118.158 33.5423 118.123 33.2473 118.123 32.8894V30.1501C118.123 29.9335 118.116 29.7873 118.102 29.7108C118.088 29.6344 118.068 29.5742 118.042 29.5297C118.015 29.4855 117.977 29.4472 117.927 29.4154C117.877 29.3835 117.784 29.3495 117.649 29.3134V29.1094H119.397V29.3134C119.242 29.3523 119.133 29.3962 119.072 29.4445C119.011 29.4931 118.97 29.566 118.948 29.6631C118.925 29.7604 118.914 29.9227 118.914 30.1503V33.0978C118.914 33.3672 118.943 33.5933 118.999 33.7765C119.056 33.9596 119.136 34.102 119.239 34.2032C119.341 34.3046 119.464 34.3781 119.605 34.4238C119.747 34.4697 119.923 34.4926 120.134 34.4926C120.328 34.4926 120.499 34.4586 120.646 34.3906C120.793 34.3228 120.916 34.2194 121.014 34.0805C121.113 33.9418 121.18 33.7711 121.216 33.5685C121.252 33.3659 121.27 33.0939 121.27 32.7526V30.1505C121.27 29.9091 121.258 29.744 121.235 29.6551C121.211 29.5664 121.173 29.4984 121.118 29.4511C121.064 29.404 120.953 29.3581 120.783 29.3136V29.1096H122.444V29.3136C122.283 29.3554 122.173 29.4011 122.113 29.4511C122.054 29.5011 122.013 29.5734 121.991 29.6676C121.968 29.7621 121.957 29.9231 121.957 30.1505V32.8276L121.957 32.8269Z" fill="#231F20"></path><path d="M124.572 32.3232V33.7385C124.572 33.9385 124.579 34.0835 124.595 34.1737C124.61 34.2638 124.633 34.332 124.663 34.3777C124.694 34.4234 124.736 34.4609 124.788 34.49C124.841 34.5193 124.931 34.5518 125.059 34.5879V34.7919H123.302V34.5879C123.474 34.5436 123.589 34.4943 123.648 34.44C123.706 34.3859 123.744 34.3089 123.762 34.2091C123.78 34.1091 123.789 33.9565 123.789 33.751V30.1498C123.789 29.9585 123.782 29.819 123.768 29.7315C123.754 29.644 123.731 29.576 123.699 29.5275C123.667 29.4789 123.625 29.44 123.572 29.4109C123.52 29.3816 123.429 29.349 123.302 29.313V29.1089H125.363C126.012 29.1089 126.498 29.2269 126.82 29.4627C127.142 29.6987 127.303 30.065 127.303 30.5618C127.303 30.942 127.198 31.2653 126.988 31.5318C126.779 31.7981 126.465 32.0063 126.045 32.1562V32.1896C126.215 32.2591 126.36 32.3582 126.481 32.4871C126.601 32.6161 126.735 32.8167 126.882 33.0887L127.257 33.7713C127.365 33.9713 127.458 34.1239 127.536 34.2294C127.614 34.3349 127.693 34.4154 127.773 34.4709C127.854 34.5264 127.961 34.5654 128.094 34.5875V34.7915H126.94C126.835 34.6444 126.735 34.4863 126.641 34.3169C126.546 34.1476 126.453 33.9754 126.362 33.8006L125.995 33.1053C125.884 32.8945 125.794 32.739 125.723 32.6391C125.652 32.5391 125.587 32.469 125.527 32.4289C125.467 32.3887 125.403 32.3609 125.335 32.3457C125.267 32.3306 125.165 32.3228 125.03 32.3228H124.572L124.572 32.3232ZM124.572 29.4922V31.9653H125.042C125.284 31.9653 125.479 31.9479 125.629 31.9133C125.779 31.8786 125.918 31.8127 126.045 31.7156C126.173 31.6185 126.275 31.4831 126.351 31.3095C126.428 31.136 126.466 30.9232 126.466 30.6706C126.466 30.4069 126.421 30.1875 126.33 30.0128C126.24 29.8378 126.103 29.7047 125.92 29.6131C125.737 29.5215 125.49 29.4756 125.179 29.4756C124.93 29.4756 124.727 29.4814 124.572 29.4922H124.572Z" fill="#231F20"></path><path d="M132.49 29.1091V30.3666H132.082C132.04 30.2305 131.997 30.1111 131.953 30.0085C131.909 29.9058 131.863 29.8198 131.816 29.7503C131.768 29.6809 131.716 29.6256 131.659 29.5838C131.603 29.542 131.535 29.5137 131.458 29.4986C131.38 29.4832 131.287 29.4756 131.179 29.4756H129.863V31.6572H130.754C130.876 31.6572 130.972 31.64 131.041 31.6051C131.11 31.5703 131.168 31.5115 131.214 31.4281C131.26 31.345 131.304 31.2145 131.345 31.0368H131.736V32.6356H131.345C131.306 32.469 131.263 32.3434 131.216 32.2588C131.169 32.1742 131.113 32.114 131.048 32.0777C130.982 32.0417 130.884 32.0237 130.754 32.0237H129.863V34.4258H131.158C131.294 34.4258 131.404 34.4139 131.489 34.3904C131.573 34.367 131.646 34.3267 131.707 34.2697C131.768 34.213 131.823 34.1386 131.87 34.047C131.917 33.9555 131.956 33.8604 131.988 33.7619C132.02 33.6633 132.064 33.5197 132.12 33.3311H132.532L132.453 34.7923H128.597V34.5883C128.77 34.544 128.885 34.4947 128.943 34.4404C129.001 34.3863 129.039 34.3093 129.057 34.2095C129.075 34.1095 129.084 33.9569 129.084 33.7514V30.1502C129.084 29.9589 129.077 29.8194 129.063 29.7319C129.05 29.6444 129.027 29.5764 128.995 29.5279C128.963 29.4793 128.92 29.4404 128.868 29.4113C128.815 29.382 128.725 29.3494 128.597 29.3134V29.1093H132.49L132.49 29.1091Z" fill="#231F20"></path><path fill-rule="evenodd" clip-rule="evenodd" d="M11.7651 10.9612H30.239V29.4351L41.2001 40.3962V0H0.803894L11.7651 10.9612Z" fill="#044F28"></path><path fill-rule="evenodd" clip-rule="evenodd" d="M29.4351 30.2389H10.9609V11.765L0 0.803833V41.2001H40.3962L29.4351 30.2389Z" fill="#044F28"></path></svg>